<?xml version="1.0" encoding="utf-8"?>
<!-- Generator: Adobe Illustrator 19.0.0, SVG Export Plug-In . SVG Version: 6.00 Build 0)  -->
<svg version="1.1" id="Layer_1" xmlns="http://www.w3.org/2000/svg" xmlns:xlink="http://www.w3.org/1999/xlink" x="0px" y="0px"
	 viewBox="0 0 600 600" style="enable-background:new 0 0 600 600;" xml:space="preserve">
<g id="XMLID_1_">
	<path id="XMLID_95_" d="M303.3,553.6c-24.5,0.7-48.9-0.2-73.1-4.2c-21.2-3.5-41.9-8.8-59.8-21.6c-2-1.4-3.9-3.1-5.8-4.7
		c-0.8-0.7-1.9-1.7-1.8-2.5c0.8-5.6-3.4-5-6.6-5.6c-47.3-8.9-80.8-35.1-100-79.5c-3.1-7.2-2.3-14.1,2.4-19.6c9.8-11.4,15-25,20-38.6
		c16.4-44.3,32.2-88.8,48.2-133.2c2.3-6.3,5.1-12.1,10.5-16.3c0.9-0.7,1.3-2.7,1.3-4.1c-0.4-24.3,2.9-48,11.1-70.8
		c15.1-42.2,43.2-72,85-88.6c13.1-5.2,26.8-8.3,40.6-10.8c2-0.4,4.4-1.4,5.6-2.9c3.4-4.4,7.8-6.7,13.2-6.9
		c6.8-0.2,13.6-0.1,20.4,0.3c4.5,0.2,8,2.6,11,6.1c1.4,1.6,3.7,3,5.7,3.4c28.7,4.7,55.4,14,78.6,32.2c23.2,18.2,38.8,41.8,48.2,69.6
		c7.5,22.2,10.6,45.2,10.4,68.6c0,1.6,1.3,3.3,2.2,4.9c3,5,7.2,9.5,9.2,14.9c13.8,38,27,76.2,40.8,114.2
		c5.2,14.4,11.4,28.5,17.6,42.6c1.9,4.4,4.8,8.5,7.8,12.2c6.4,7.9,8.2,15.9,3.8,25.5c-20.3,44.2-54.5,69.8-102.4,77.5
		c-2,0.3-2.9,0.8-3.2,3c-0.3,1.8-1.3,4-2.7,5.2c-13.1,11.7-29.1,17.6-45.8,21.8c-25.5,6.4-51.5,8.3-77.8,8.1
		C313,553.6,308.1,553.6,303.3,553.6z M547.3,433.9c0.4-0.7,0.7-1.2,0.8-1.6c2-6.5-0.5-11.7-4.3-16.8c-2.4-3.1-5.2-6.1-6.7-9.7
		c-9.9-23.9-20.1-47.6-29.1-71.9c-11-29.6-20.9-59.7-31.6-89.4c-1.6-4.6-4.6-8.8-7.7-12.6c-1.8-2.2-5-3.2-4.3-7
		c0.1-0.5-1-1.5-1.7-1.9c-4.3-2.9-5.8-7.2-6.3-12.1c-0.6-6.3-1-12.6-2-18.8c-3.2-19.4-10.6-37.3-19-54.9
		c-7.9-16.6-18.9-30.9-33.3-42.4c-20.8-16.6-45-24.4-71-27.5c-1-0.1-2,0.1-3.1,0.2c0,1.8,0.1,3.2,0,4.6c-0.4,4.2,1.1,6.1,5.6,7
		c25.2,5.2,45.7,18.1,60.7,39.2c2.8,3.9,5.2,8.1,7.8,12.2c7.3-4.9,10.6-4.1,15.3,3.5c0.3,0.4,0.6,0.9,0.8,1.4
		c3.4,9.1,7.1,18.1,10.1,27.3c2,6.4-1.4,10.1-8.1,9.1c-4.5-0.7-8.8-2.4-13.3-3.5c-28.3-7.5-54.7-5.5-77.7,14.7
		c-1.5,1.3-3.2,2.3-5,3.1c-3,1.4-5.2,0.2-6.3-2.7c-0.5-1.4-0.7-3.1-0.7-4.6c-1-32.8-1.9-65.7-2.9-98.5c-0.2-5.5-0.4-11.1-1.4-16.5
		c-0.4-2.2-2.3-5-4.3-6c-7.9-4-15,0.4-15.5,9.2c-0.7,13.9-1.5,27.8-1.9,41.7c-0.8,22.6-1.3,45.2-1.9,67.8c-0.1,3.5,0.9,7.5-2.9,9.5
		c-3.9,2.1-6.5-1.5-9.4-3.3c-7.1-4.4-13.8-9.7-21.4-13.2c-16-7.2-32.8-6.3-49.5-2.9c-6.3,1.3-12.3,3.8-18.6,5
		c-7.9,1.5-11.3-2.6-8.9-10.3c2.1-6.8,4.3-13.6,7.1-20c1.9-4.4,4.7-8.5,7.8-12.2c2.4-2.9,5.8-2.6,8.8-0.3c0.7,0.5,1.4,1.1,2.3,1.8
		c0.8-1.4,1.5-2.7,2.3-3.9c4.3-6,8.1-12.3,13-17.8c14.6-16.5,33.3-26.1,54.7-30.5c1.4-0.3,3.3-1.5,3.6-2.7c0.6-2.6,0.4-5.4,0.5-8.6
		c-1.7,0-3.1-0.2-4.4,0c-9.4,1.8-18.9,3.2-28.1,5.8c-25.6,7.5-47.2,21.4-62.5,43.5c-19.1,27.6-30.9,58.1-33.3,91.8
		c-0.3,4.4-0.5,9-4.2,12.4c-2.2,2.1-5.4,3.5-4.4,7.5c0.1,0.4-0.6,1.2-1.1,1.5c-6.1,3.3-8.5,9.1-10.7,15.1
		c-15.8,43.8-31.4,87.7-47.5,131.4c-5.3,14.4-10.5,29.2-21.1,41.1c-1.4,1.6-2.3,3.9-3,5.9c-1.2,3.5-1.3,7.1,1,10.4
		c4.3-7.3,8.5-14.4,12.6-21.5c14.4-25.4,26.7-51.7,34.5-80.1c7.4-27,17.1-53.2,30.2-78.1c10-19.1,21.8-36.9,38.2-51.2
		c16-14,34.2-21.8,55.8-20.8c15.5,0.7,29.8,5.8,43.3,13.3c2.9,1.6,5.6,2.3,8.9,2c7.2-0.6,14.5-1,20.6,3.6c6.8-4.8,14.2-3.8,21.6-3.6
		c2.1,0,4.4-0.4,6.3-1.2c7.5-3.1,14.7-7.2,22.3-9.7c21.7-7.2,42.9-6,63.1,5.7c17.7,10.2,30.5,25.1,41.5,41.9
		c18,27.5,30.2,57.7,39.2,89.1c8.7,30.4,20.2,59.4,35.9,86.7C537.9,417.8,542.5,425.7,547.3,433.9z M273.3,294.9
		c-0.2-0.3-0.3-0.5-0.5-0.8c-32.1,6.1-64.1,12.2-97.2,18.5c16.3,17.4,32.1,34.1,48.1,51.2C240.5,340.6,256.9,317.8,273.3,294.9z
		 M383.1,363.9c16.2-17.2,31.9-34,48.1-51.3c-33-6.3-65.1-12.4-98.4-18.8C349.8,317.7,366.3,340.5,383.1,363.9z M225.5,418
		c-0.4-0.2-0.9-0.3-1.3-0.5c-1.5,2.1-3.3,4-4.4,6.3c-3.2,6.3-7,12.5-9.2,19.1c-7.2,21.4-13.7,43-20.5,64.5c-1.1,3.5-0.5,6.9,2.5,8.9
		c5.4,3.6,11.2,6.6,17,9.6c2.9,1.6,4.3,0.5,4.1-2.9c-1-29.3,3.4-58.1,8.5-86.9C223.2,430,224.4,424,225.5,418z M382.5,417.2
		c-0.4,0.2-0.7,0.3-1.1,0.5c0.2,1.3,0.4,2.7,0.6,4c3.4,22.3,7.2,44.6,9.9,67c1.4,11.3,1,22.8,1.4,34.2c0.1,1.8-0.4,4.7,2.5,3.4
		c6.4-2.9,12.6-6.2,18.5-10.1c3-1.9,3.5-5.5,2.3-9.2c-3.7-12.2-6.9-24.5-10.6-36.7c-4.7-15.3-9.8-30.5-17.7-44.5
		C386.5,422.8,384.4,420,382.5,417.2z M257.9,283.1c-0.1-0.7-0.3-1.4-0.4-2.1c-1.4,0.2-2.9,0.3-4.3,0.7
		c-23.3,6.3-45.4,4.1-65.2-10.5c-20.5-15.2-20.4-40.9-0.3-56.5c23.8-18.4,62.1-18.5,86.2-0.2c1,0.7,2,1.4,3,2.1
		c-1.6-3-3.6-5.4-6-7.4c-10.8-9.1-23.9-12.3-37.5-13.9c-14-1.7-27.4,0.1-39,8.7c-17.4,12.8-24.9,31.1-26.3,52
		c-0.8,11.9,5.9,19.1,17.6,21.5c3.2,0.7,6.4,1.3,9.6,2.2c3,0.9,5.1,2.9,5,6.3c-0.1,4,2.2,5.2,5.5,4.9c12-1.1,24-2,36-3.6
		C247.3,286.7,252.6,284.6,257.9,283.1z M330.6,215.7c11.3-8.5,23.9-13.2,37.9-14.4c18.9-1.5,36.4,2.1,51.5,14.2
		c13.3,10.6,17.8,26.5,11.2,40.7c-4.2,9-11.3,15.5-19.9,20c-18.7,9.8-38.2,11.2-58.4,5.3c-1-0.3-2.3,0.1-3.4,0.1
		c0.9,0.7,1.6,1.8,2.6,2.2c16.1,5.3,32.8,7.2,49.7,7.1c2.8,0,4.8-0.9,4.7-4.3c-0.1-3.5,1.9-5.7,5-6.8c2.1-0.7,4.3-1.3,6.5-1.6
		c15.1-2.2,21.6-9.6,20.7-24.8c-0.8-13.1-5.5-25-12.8-35.9c-5-7.4-11.4-13.5-19.6-17.2c-21.3-9.6-42-5.8-62.3,3.6
		C338.3,206.5,333.7,210.3,330.6,215.7z M320.2,392.6c0-1.6,0-3,0-4.4c0-19-0.2-38.1,0.1-57.1c0.1-6.5-3.7-11.6-11.6-9
		c0,23.4,0,46.8,0,70.5C312.5,392.6,316.1,392.6,320.2,392.6z M297.8,392.6c0-23.7,0-47.3,0-70.8c-9-0.9-11.4,1.2-11.4,10
		c0,18.6,0,37.3,0,55.9c0,1.5,0,3.1,0,4.9C290.4,392.6,294,392.6,297.8,392.6z M331.6,342.5c-0.3,0.1-0.5,0.2-0.8,0.3
		c0,16.6,0,33.1,0,49.9c3.9,0,7.4,0,11.4,0c0-11.8,0-23.3,0-34.8c0-0.6-0.3-1.3-0.6-1.8C338.2,351.5,334.9,347,331.6,342.5z
		 M379.2,414.7c-0.3-0.5-0.5-0.9-0.8-1.4c-1.3,0.7-2.8,1.1-4,2C352,433.1,329.7,451,307.4,469c-1.9,1.5-3.3,1.5-5.2,0
		c-4.2-3.4-8.5-6.6-12.8-9.8c-19.8-15-39.6-30-59.4-45c-0.9-0.7-2.2-1-3.2-1.5c-0.2,0.4-0.4,0.8-0.6,1.2
		c26.1,20.2,52.2,40.5,78.6,60.9C329.6,454.7,354.4,434.7,379.2,414.7z M275.6,392.6c0-16.9,0-33.5,0-50.3
		c-7.6,8-13.5,16.2-11.4,27.8c0.5,2.9,0.1,6,0.1,9.1c0,4.4,0,8.9,0,13.5C268.4,392.6,272,392.6,275.6,392.6z M345.6,432.9
		c0-0.5,0-1-0.1-1.5c-8.4,0-16.7,0-25.1,0c0-0.3,0-0.5,0-0.8c10.1-0.5,20.1-1,30.2-1.5c0-0.4,0-0.8-0.1-1.2c-31.2,0-62.5,0-93.7,0
		c0,0.4,0,0.8,0,1.2c11.2,0.5,22.4,1,33.6,1.5c0,0.3,0,0.6,0,0.8c-8.4,0-16.9,0-25.3,0c0,0.5,0,0.9,0,1.4
		C292,432.9,318.8,432.9,345.6,432.9z M228.9,271.9c2.4-0.2,4.2-0.1,6-0.5c1.1-0.3,3-1.1,3-1.8c0.1-1.2-0.7-3-1.6-3.6
		c-2.1-1.3-4.4-2.3-6.8-2.8c-10.2-2.1-20.7-3.1-30.1-8.3c-1.3-0.7-3.5,0-5.2,0c0.7,1.7,0.9,4,2.2,4.9
		C206.2,266.9,217.1,271.4,228.9,271.9z M377.1,271.9c10.8,0.6,25.8-6.6,32.3-11c1.1-0.7,2-1.7,2.7-2.8c0.5-0.8,0.9-2.2,0.6-2.8
		c-0.4-0.6-1.8-0.9-2.7-0.9c-1.3,0.1-2.5,0.6-3.7,1.1c-3.4,1.3-6.7,3-10.2,3.8c-6.2,1.6-12.6,2.5-18.8,4c-2.5,0.6-4.9,1.8-7,3.1
		c-0.9,0.5-1.4,2.3-1.3,3.4c0.1,0.7,1.7,1.4,2.8,1.7C373.4,271.8,375.3,271.7,377.1,271.9z M238.8,414.3c43.2,2.5,86.5,2.6,129.7,0
		C325.3,412.3,282,412.3,238.8,414.3z M232.1,405c0.2,0.3,0.4,0.5,0.6,0.8c46.3,0,92.7,0,139,0c0.1-0.4,0.1-0.9,0.2-1.3
		c-1.5-0.3-3-0.8-4.5-0.8c-43.3,0-86.6,0-129.9,0c-1.1,0-2.1-0.2-3.1,0.1C233.5,403.8,232.9,404.5,232.1,405z M362.6,419.2
		c-13.6-2.2-108.7-2.1-118.7,0.2C284.2,421.4,323.4,421.5,362.6,419.2z M324.2,263.4c-1.6-3-2.6-5.3-4-7.5c-0.6-0.9-1.9-1.8-3-2
		c-9.4-2-18.8-1.6-28.1,0.6c-1,0.2-2.2,1-2.7,1.9c-1.4,2.1-2.6,4.5-4.3,7.6C296.3,259.1,310,258,324.2,263.4z M356.8,424.3
		c0-0.4-0.1-0.9-0.1-1.3c-35.4,0-70.8,0-106.3,0c0,0.4,0,0.8,0,1.2C285.9,426.2,321.3,426.1,356.8,424.3z M238.7,409.5
		c43.8,2.5,87.7,2.7,131.5,0C326.4,409.5,282.6,409.5,238.7,409.5z M289.1,237.3c0.1,2.6,0.2,4.7,0.3,7.3c9.4-3,18.4-3.4,27.8-0.9
		c-1.3-2.4,3.2-6.1-1.9-7.4C306.7,234,298.1,234.7,289.1,237.3z M283,310.5c-1.2,1.5-1.8,2.3-2.4,3.1c-8,10.9-16.1,21.8-24.1,32.6
		c-9,12.3-18.1,24.5-27.1,36.8c-0.7,0.9-0.9,2.2-1.4,3.2C233.3,383,282.8,314.4,283,310.5z M377.4,384.9
		c-17.2-25.1-35.5-49.5-53.9-74.7C323.5,314,371.4,380.8,377.4,384.9z M215.4,406.4c4.1,0,7.6-3.5,7.6-7.5c0-4.1-3.8-7.7-7.9-7.6
		c-4,0.2-7.4,3.7-7.3,7.7C207.8,403.1,211.3,406.4,215.4,406.4z M396.5,398.9c0-4-3.5-7.5-7.6-7.5c-4.2,0-7.4,3.3-7.4,7.5
		c0,4.3,3.2,7.5,7.5,7.5C393,406.3,396.5,403,396.5,398.9z M353.6,372.5c-0.2,0.2-0.5,0.3-0.7,0.5c0,6.5,0,13,0,19.6
		c5.1,0,10,0,15.4,0C363.1,385.5,358.4,379,353.6,372.5z M269.9,437.4c0,0.3,0,0.7,0,1c8.3,2,65.2,1.7,69.8-1
		C315.8,437.4,292.8,437.4,269.9,437.4z M253.7,392.6c0-6.8,0-13.4,0-21.2c-5.5,7.5-10.3,14.1-15.5,21.2
		C243.9,392.6,248.7,392.6,253.7,392.6z M275.5,442.7c0,0.4,0,0.7,0,1.1c19.1,0,38.1,0,57.2,0c0-0.4,0-0.8,0-1.1
		C313.6,441.5,294.6,441.5,275.5,442.7z M393.3,366.7c0.2,0.2,0.5,0.5,0.7,0.7c15.2-15.6,30.3-31.2,45.4-46.9c0.6-0.6,0.4-2,0.5-3
		c-0.3-0.1-0.6-0.1-0.9-0.2C423.8,333.8,408.6,350.2,393.3,366.7z M214.8,369.5c0.2-0.2,0.4-0.4,0.6-0.6
		c-15.9-17.2-31.8-34.4-47.8-51.5c-0.4,0.3-0.9,0.5-1.3,0.8c0.6,1.1,1,2.5,1.8,3.3c5.1,5.4,10.4,10.8,15.6,16.2
		C194.1,348.2,204.5,358.8,214.8,369.5z M317.2,282.1c-0.8-1.8-0.9-3.2-1.7-3.9c-6.6-5.8-17.8-5.6-24.6,0.3
		c-0.6,0.5-0.7,1.6-1.1,2.5c0.9,0,2,0.5,2.6,0.1c4.5-2.6,9.3-3.8,14.3-2.7C309.9,279,312.8,280.5,317.2,282.1z M289.4,220.1
		c2.5-0.6,6.8-0.1,6.6-3.9c-0.1-3.3-4.1-3.5-7-3.5c-3,0-7.1,0.1-7.2,3.6C281.8,220,286,219.8,289.4,220.1z M318.6,211.7
		c-3.5,1.3-7.8,0.9-7.8,4.6c0,3.7,4.1,3.7,7.1,3.7c3,0,6.9,0,6.9-3.8C324.9,214.7,320.8,213.2,318.6,211.7z M327,448.6
		c0-0.4,0-0.8,0-1.1c-15.1,0-30.3,0-45.4,0c0,0.4,0,0.8,0,1.1C296.7,448.6,311.9,448.6,327,448.6z M321,453.3c0-0.3,0-0.7,0-1
		c-11.1,0-22.2,0-33.3,0c0,0.3,0,0.7,0,1C298.8,453.3,309.9,453.3,321,453.3z M315.3,457.9c0-0.3,0-0.6-0.1-0.9
		c-7.2,0-14.4,0-21.6,0c0,0.3,0,0.6,0,0.9C300.9,457.9,308.1,457.9,315.3,457.9z M348.7,260.4c-1.1,3.2-1.3,5.6,1.9,6.5
		c1.1,0.3,3.7-0.6,3.7-1.2C354.9,261.9,351.4,262,348.7,260.4z M258.2,260.6c-2.8,1.1-5.9,1.3-5.9,4.9c0,0.6,2.2,1.7,3.2,1.6
		C259.1,266.5,259.2,264,258.2,260.6z M299.7,461.7c0,0.3,0,0.6,0,0.9c3.3,0,6.5,0,9.8,0c0-0.3,0-0.6,0-0.9
		C306.2,461.7,302.9,461.7,299.7,461.7z"/>
</g>
</svg>
